# xmcd
#
# Track frame offsets:
#	150
#	18512
#	37634
#	56522
#	77668
#	95059
#	118723
#	140211
#	161637
#	194545
#	214263
#	239400
#	258972
#	263134
#	287017
#
# Disc length: 4425 seconds
#
# Revision: 1
# Processed by: cddbd v1.5PL3 Copyright (c) Steve Scherf et al.
# Submitted via: CDex 1.50Beta5
#
DISCID=d911470f
DTITLE=浜崎あゆみ - LOVEppears  Disc1
DYEAR=1900
DGENRE=Pop
TTITLE0=Fly High
TTITLE1=Trauma
TTITLE2=And Then
TTITLE3=Immature "Album Version"
TTITLE4=Boy's and Girls
TTITLE5=To Be
TTITLE6=End roll
TTITLE7=P.S
TTITLE8=WHATEVER"Dub's 1999 Remix"
TTITLE9=too late
TTITLE10=appears"Album Version"
TTITLE11=monochrome
TTITLE12=Interlude
TTITLE13=LOVE?refrain?
TTITLE14=Who...
EXTD=
EXTT0=
EXTT1=
EXTT2=
EXTT3=
EXTT4=
EXTT5=
EXTT6=
EXTT7=
EXTT8=
EXTT9=
EXTT10=
EXTT11=
EXTT12=
EXTT13=
EXTT14=
PLAYORDER=
